<?xml version="1.0" standalone="no"?>
<!DOCTYPE svg PUBLIC "-//W3C//DTD SVG 20010904//EN"
 "http://www.w3.org/TR/2001/REC-SVG-20010904/DTD/svg10.dtd">
<svg version="1.0" xmlns="http://www.w3.org/2000/svg"
 width="1024.000000pt" height="1024.000000pt" viewBox="0 0 1024.000000 1024.000000"
 preserveAspectRatio="xMidYMid meet">
<metadata>
Created by potrace 1.14, written by Peter Selinger 2001-2017
</metadata>
<g transform="translate(0.000000,1024.000000) scale(0.100000,-0.100000)"
fill="#000000" stroke="none">
<path d="M1459 10236 c-2 -2 -34 -6 -71 -10 -99 -9 -288 -61 -407 -111 -200
-85 -366 -198 -521 -355 -220 -223 -363 -493 -432 -815 l-23 -110 0 -3705 c0
-2038 4 -3727 8 -3755 73 -460 334 -869 712 -1115 165 -107 357 -186 568 -232
l102 -23 3725 0 3725 0 102 23 c285 63 521 177 730 353 73 63 109 99 197 199
59 67 158 224 210 333 74 155 123 323 145 497 6 46 9 1500 8 3760 l-2 3685
-23 97 c-108 469 -368 833 -763 1068 -164 98 -366 169 -579 204 -72 12 -644
15 -3746 15 -2013 1 -3663 -1 -3665 -3z m7342 -816 c328 -69 574 -330 628
-665 6 -38 9 -1383 8 -3670 -2 -3393 -3 -3614 -20 -3673 -52 -191 -172 -363
-327 -470 -63 -44 -199 -103 -280 -123 -46 -12 -664 -14 -3690 -14 -3453 0
-3638 1 -3704 18 -201 51 -367 168 -479 337 -57 85 -103 200 -121 297 -12 66
-14 616 -15 3663 0 3183 2 3594 15 3665 61 319 305 567 624 635 81 18 243 19
3680 19 3436 0 3599 -1 3681 -19z"/>
<path d="M4635 8144 c-38 -7 -86 -15 -105 -18 -262 -48 -607 -174 -843 -308
-40 -23 -81 -46 -92 -52 -11 -6 -72 -46 -135 -88 -174 -117 -306 -225 -470
-383 -310 -300 -517 -571 -665 -870 -110 -224 -177 -441 -200 -651 -25 -230
-25 -508 0 -609 47 -190 174 -332 355 -397 126 -45 159 -46 1224 -48 556 0
1011 -2 1012 -3 2 -2 5 -450 7 -997 4 -1077 2 -1036 60 -1178 93 -230 279
-385 527 -438 67 -14 86 -15 230 -18 135 -2 185 1 375 19 150 14 314 47 539
110 249 69 574 240 796 418 87 70 270 251 320 317 19 25 37 47 40 50 57 54
222 329 292 485 45 102 55 127 88 220 115 330 173 702 174 1120 0 235 -14 321
-70 426 -36 68 -136 167 -200 198 -27 13 -57 28 -67 33 -68 34 -161 37 -1236
37 -586 1 -1066 3 -1068 4 -1 2 -3 442 -3 978 -1 818 -4 987 -16 1054 -33 175
-91 292 -198 398 -40 40 -80 78 -90 85 -37 29 -184 90 -246 102 -86 17 -248
19 -335 4z m85 -1711 l0 -913 -906 0 -906 0 6 98 c15 235 117 486 293 721 149
200 371 428 563 578 194 151 434 282 650 354 71 23 268 75 288 75 9 1 12 -189
12 -913z m2644 -1748 c-2 -52 -15 -212 -19 -232 -2 -11 -6 -44 -10 -74 -4 -30
-13 -85 -21 -124 -118 -571 -409 -969 -867 -1185 -249 -117 -541 -182 -837
-184 l-85 -1 -3 918 -2 917 922 -2 923 -3 -1 -30z"/>
<path d="M6240 7848 c-35 -13 -59 -37 -78 -78 -15 -31 -17 -117 -19 -827 l-2
-793 522 -1 c287 0 647 0 800 0 182 0 289 3 312 11 47 15 75 53 75 101 0 42
-45 177 -96 289 -30 65 -117 216 -133 230 -3 3 -23 30 -43 60 -21 30 -48 66
-60 80 -13 14 -36 43 -52 65 -51 69 -356 366 -471 458 -91 74 -266 195 -410
286 -16 11 -75 42 -130 70 -103 52 -168 67 -215 49z"/>
<path d="M2485 4029 c-118 -16 -141 -85 -81 -249 62 -172 154 -333 293 -515
119 -156 318 -355 528 -530 143 -119 471 -329 602 -386 63 -27 140 -30 177 -6
15 10 38 40 49 65 22 47 22 52 23 835 l1 787 -436 0 c-240 1 -589 2 -776 3
-187 1 -358 0 -380 -4z"/>
</g>
</svg>
