<?xml version="1.0" standalone="no"?>
<!DOCTYPE svg PUBLIC "-//W3C//DTD SVG 20010904//EN"
 "http://www.w3.org/TR/2001/REC-SVG-20010904/DTD/svg10.dtd">
<svg version="1.0" xmlns="http://www.w3.org/2000/svg"
 width="702.000000pt" height="702.000000pt" viewBox="0 0 702.000000 702.000000"
 preserveAspectRatio="xMidYMid meet">
<metadata>
Created by potrace 1.14, written by Peter Selinger 2001-2017
</metadata>
<g transform="translate(0.000000,702.000000) scale(0.100000,-0.100000)"
fill="#000000" stroke="none">
<path d="M3004 6992 c-59 -21 -97 -48 -141 -103 -58 -73 -58 -72 -58 -584 l0
-470 23 -47 c30 -60 95 -125 152 -152 44 -20 59 -21 520 -21 l475 0 57 28 c61
30 105 74 140 140 23 42 23 43 23 527 0 484 0 485 -23 527 -35 66 -79 110
-140 140 l-57 28 -460 2 c-418 3 -465 1 -511 -15z"/>
<path d="M1604 5592 c-59 -21 -97 -48 -141 -103 -58 -73 -58 -72 -58 -584 l0
-470 23 -47 c30 -60 95 -125 152 -152 43 -20 62 -21 499 -24 511 -3 521 -2
609 67 34 27 59 59 78 98 l29 58 0 480 c0 479 0 480 -23 522 -35 66 -79 110
-140 140 l-57 28 -460 2 c-418 3 -465 1 -511 -15z"/>
<path d="M4404 5592 c-94 -33 -175 -123 -194 -217 -7 -35 -10 -202 -8 -496 3
-441 3 -444 26 -491 30 -60 95 -125 152 -152 44 -20 59 -21 520 -21 l475 0 57
28 c61 30 105 74 140 140 23 42 23 43 23 527 0 484 0 485 -23 527 -35 66 -79
110 -140 140 l-57 28 -460 2 c-420 3 -464 1 -511 -15z"/>
<path d="M204 4192 c-59 -21 -97 -48 -141 -103 -58 -73 -58 -72 -58 -584 0
-456 1 -471 21 -515 28 -59 95 -127 152 -153 46 -22 57 -22 522 -22 l475 0 57
28 c61 30 105 74 140 140 23 42 23 43 23 527 0 484 0 485 -23 527 -35 66 -79
110 -140 140 l-57 28 -460 2 c-418 3 -465 1 -511 -15z"/>
<path d="M3004 4192 c-94 -33 -175 -123 -194 -217 -7 -35 -10 -202 -8 -496 3
-441 3 -444 26 -491 30 -60 95 -125 152 -152 44 -20 59 -21 520 -21 467 0 476
0 522 22 66 30 132 102 157 169 20 52 21 75 21 504 0 429 -1 452 -21 504 -25
67 -91 139 -157 169 -46 21 -58 22 -507 24 -420 3 -464 1 -511 -15z"/>
<path d="M5804 4192 c-94 -33 -175 -123 -194 -217 -7 -35 -10 -202 -8 -496 3
-441 3 -444 26 -491 30 -60 95 -125 152 -152 44 -20 59 -21 520 -21 l475 0 57
28 c61 30 105 74 140 140 23 42 23 43 23 527 0 484 0 485 -23 527 -35 66 -79
110 -140 140 l-57 28 -460 2 c-420 3 -464 1 -511 -15z"/>
<path d="M1604 2792 c-93 -33 -175 -123 -194 -217 -7 -35 -10 -202 -8 -496 3
-427 4 -446 24 -489 28 -59 95 -127 152 -153 46 -22 57 -22 522 -22 l475 0 57
28 c61 30 105 74 140 140 23 42 23 43 23 522 l0 480 -29 58 c-19 39 -44 71
-78 97 -86 69 -97 70 -592 70 -395 -1 -446 -2 -492 -18z"/>
<path d="M4404 2792 c-94 -33 -175 -123 -194 -217 -7 -35 -10 -202 -8 -496 3
-441 3 -444 26 -491 30 -60 95 -125 152 -152 44 -20 59 -21 520 -21 l475 0 57
28 c61 30 105 74 140 140 23 42 23 43 23 527 0 484 0 485 -23 527 -35 66 -79
110 -140 140 l-57 28 -460 2 c-420 3 -464 1 -511 -15z"/>
<path d="M3004 1392 c-94 -33 -175 -123 -194 -217 -7 -35 -10 -202 -8 -496 3
-427 4 -446 24 -489 28 -59 95 -127 152 -153 46 -22 57 -22 522 -22 l475 0 57
28 c61 30 105 74 140 140 23 42 23 43 23 527 0 484 0 485 -23 527 -35 66 -79
110 -140 140 l-57 28 -460 2 c-420 3 -464 1 -511 -15z"/>
</g>
</svg>
